<?xml version="1.0" encoding="UTF-8" standalone="no"?><!DOCTYPE svg PUBLIC "-//W3C//DTD SVG 1.1//EN" "http://www.w3.org/Graphics/SVG/1.1/DTD/svg11.dtd"><svg width="100%" height="100%" viewBox="0 0 800 800" version="1.1" xmlns="http://www.w3.org/2000/svg" xmlns:xlink="http://www.w3.org/1999/xlink" xml:space="preserve" xmlns:serif="http://www.serif.com/" style="fill-rule:evenodd;clip-rule:evenodd;stroke-linecap:round;stroke-linejoin:round;stroke-miterlimit:1.5;"><rect id="Artboard1" x="0" y="0" width="800" height="800" style="fill:none;"/><g id="Artboard11" serif:id="Artboard1"><path d="M95.887,319.603c3.35,3.35 1.545,12.451 2.363,16.542c2.33,11.65 1.254,29.503 8.665,39.385c7.116,9.488 17.408,2.993 26.781,-2.364c3.746,-2.14 2.852,-2.552 4.727,-6.301c0.423,-0.847 0.906,-3.033 1.575,-2.363c3.921,3.921 -2.16,30.136 0.788,33.083c2.821,2.821 13.541,-13.541 15.754,-15.754c4.176,-4.177 11.266,-5.045 15.753,-11.028c6.999,-9.331 4.511,-30.612 15.754,-36.233c1.226,-0.613 6.641,0.787 8.665,0.787c1.742,0 9.742,-0.497 11.028,0.788c0.808,0.809 -6.642,0.788 -7.877,0.788c-7.964,-0 -9.533,1.03 -11.816,7.877c-5.229,15.687 27.286,18.968 22.843,32.295c-1.497,4.493 -26.423,25.134 -31.507,14.966c-4.523,-9.044 11.681,-19.063 16.541,-22.843c15.438,-12.007 31.371,-31.748 52.776,-18.905c6.278,3.768 -20.543,16.682 -20.543,23.925c0,0.881 -1.093,4.248 -0.725,4.432c4.265,2.133 11.525,-1.43 14.966,-3.15c2.897,-1.449 4.001,4.938 6.302,5.513c6.964,1.741 10.837,-2.474 16.541,-5.513c3.747,-1.997 8.475,-7.837 11.028,-11.028c1.281,-1.601 6.176,-5.389 4.726,-3.939c-24.185,24.185 -46.449,70.894 -78.769,85.071c-6.102,2.676 -37.779,17.483 -38.597,13.391c-2.608,-13.04 13.296,-28.329 22.055,-35.446c14.87,-12.082 33.495,-20.973 52.776,-22.843c18.324,-1.778 34.116,2.107 51.2,-4.726c17.822,-7.13 29.186,-15.485 43.323,-27.57c4.128,-3.529 15.765,-5.537 18.117,-10.24c0.568,-1.136 -5.374,-2.503 -6.302,-1.575c-14.87,14.87 2.439,26.626 16.542,31.508c10.414,3.604 11.815,0.786 11.815,2.363c-0,1.267 -23.898,17.329 -26.782,17.329c-0.787,-0 -0.352,-1.659 0,-2.363c1.009,-2.017 6.951,-6.472 7.877,-7.089c8.24,-5.494 18.454,-10.81 26.782,-15.754c16.871,-10.017 38.321,-20.856 50.412,-37.022c7.047,-9.421 13.476,-21.695 15.754,-33.083c0.963,-4.815 2.363,-8.465 2.363,-13.391c0,-2.116 1.735,-8.195 0.788,-6.301c-9.944,19.886 -17.795,44.802 -20.009,66.946c-0.821,8.208 -3.734,17.255 -5.985,25.214c-0.995,3.516 -3.213,6.614 -3.939,10.24c-0.115,0.576 -0.372,1.99 -0.787,1.575c-3.657,-3.657 -2.419,-12.15 -3.151,-16.541c-2.041,-12.245 -8.813,-34.214 -4.726,-46.474c0.021,-0.063 5.11,3.519 9.452,4.726c5.867,1.631 16.342,0.688 21.268,3.151c1.625,0.812 -10.042,8.859 -11.028,10.24c-3.164,4.43 -14.561,27.173 -0.788,24.418c21.232,-4.246 33.891,-37.785 44.111,-52.775c4.944,-7.251 9.444,-15.283 15.713,-21.552c3.315,-3.314 8.706,-7.895 8.706,-5.23c-0,3.054 -4.523,8.053 -5.514,11.028c-5.309,15.927 -9.226,32.215 -14.966,48.049c-1.504,4.147 -5.43,11.983 -3.151,16.542c2.338,4.676 17.761,-2.162 20.48,-3.151c0.971,-0.353 9.512,-4.667 8.665,-5.514c-6.511,-6.51 -26.863,3.695 -23.631,13.391c2.398,7.195 20.51,6.301 26.781,6.301c1.798,0 5.251,0.5 7.09,0c1.074,-0.292 3.15,-3.15 2.363,-2.363c-5.988,5.988 -12.603,22.056 -12.603,22.056c-0,-0 1.135,-5.426 2.363,-7.877c2.583,-5.159 6.471,-10.785 9.452,-15.754c8.708,-14.513 16.789,-28.228 24.418,-43.323c1.561,-3.087 6.739,-8.579 4.727,-12.603c-4.473,-8.946 -3.288,15.239 -5.514,19.692c-4.274,8.547 -21.344,25.055 -14.966,37.809c1.129,2.258 9.551,2.293 11.992,0.463c7.29,-5.468 49.407,-21.811 43.146,-34.333c-3.499,-6.998 -14.62,14.111 -15.754,20.48c-3.013,16.926 0.314,28.538 18.117,33.87c12.9,3.864 32.823,3.594 45.368,-1.782c2.659,-1.14 16.971,-12.531 9.771,-17.122c-6.355,-4.052 -23.649,3.133 -15.754,11.027c0.444,0.445 5.974,0 6.301,0c11.151,0 20.049,-0.95 24.419,-12.603c0.606,-1.617 3.608,-12.45 0.787,-13.39c-4.656,-1.553 -9.26,10.742 -10.24,12.603c-7.236,13.749 -12.675,29.251 -22.055,41.747c-26.577,35.409 -64.261,58.797 -105.529,72.552c-9.704,3.235 -18.357,7.534 -27.591,11.731c-1.219,0.554 -3.34,1.986 -3.938,0.788c-2.834,-5.666 4.6,-20.405 6.301,-25.994c11.796,-38.768 31.366,-43.11 68.529,-53.563c12.969,-3.647 33.893,-6.324 44.111,-16.541c2.091,-2.092 -4.968,1.564 -6.064,3.026c-3.627,4.835 -6.207,12.966 -4.176,19.029c3.44,10.267 21.22,14.69 29.657,17.625c12.104,4.21 51.466,12.465 61.93,5.489c9.451,-6.301 17.588,-34.617 19.478,-45.957c2.594,-15.567 -35.293,-18.824 -44,-20.387c-32.099,-5.761 -64.611,-5.725 -97.086,-5.725c-10.254,-0 -27.325,-2.789 -35.357,4.844" style="fill:none;stroke:#000;stroke-width:1.8px;"/></g></svg>